<?xml version="1.0" encoding="utf-8"?>
<svg version="1.1" xmlns:xlink="http://www.w3.org/1999/xlink" width="5px" height="9px" xmlns="http://www.w3.org/2000/svg">
  <g transform="matrix(1 0 0 1 -671 -489 )">
    <path d="M 4.91408934707908 0.541082164328657  C 4.97136311569307 0.601202404809612  5 0.670340681362745  5 0.748496993987999  C 5 0.826653306613252  4.97136311569307 0.895791583166329  4.91408934707908 0.955911823647284  L 1.5378006872852 4.5  L 4.91408934707908 8.04408817635272  C 4.97136311569307 8.10420841683367  5 8.17334669338675  5 8.251503006012  C 5 8.32965931863725  4.97136311569307 8.39879759519039  4.91408934707908 8.45891783567134  L 4.48453608247428 8.90981963927857  C 4.4272623138603 8.96993987975952  4.36139747995423 9  4.28694158075598 9  C 4.21248568155784 9  4.14662084765178 8.96993987975952  4.08934707903779 8.90981963927857  L 0.0859106529209157 4.70741482965934  C 0.0286368843070477 4.64729458917833  0 4.57815631262525  0 4.5  C 0 4.42184368737475  0.0286368843070477 4.35270541082167  0.0859106529209157 4.29258517034066  L 4.08934707903779 0.0901803607214333  C 4.14662084765178 0.0300601202404778  4.21248568155784 0  4.28694158075598 0  C 4.36139747995423 0  4.4272623138603 0.0300601202404778  4.48453608247428 0.0901803607214333  L 4.91408934707908 0.541082164328657  Z " fill-rule="nonzero" fill="#333333" stroke="none" transform="matrix(1 0 0 1 671 489 )" />
  </g>
</svg>