<?xml version="1.0" encoding="utf-8"?>
<svg version="1.1" xmlns:xlink="http://www.w3.org/1999/xlink" width="3px" height="5px" xmlns="http://www.w3.org/2000/svg">
  <g transform="matrix(1 0 0 1 -828 -1443 )">
    <path d="M 0.0515463917525949 0.300601202404778  C 0.0171821305841604 0.334001336005258  0 0.372411489645856  0 0.415831663326799  C 0 0.459251837007287  0.0171821305841604 0.497661990647885  0.0515463917525949 0.531062124248592  L 2.07731958762884 2.5  L 0.0515463917525949 4.46893787575141  C 0.0171821305841604 4.50233800935212  0 4.54074816299271  0 4.58416833667343  C 0 4.62758851035414  0.0171821305841604 4.66599866399474  0.0515463917525949 4.69939879759522  L 0.309278350515456 4.94989979959928  C 0.34364261168389 4.98329993319953  0.383161512027527 5  0.427835051546367 5  C 0.472508591065207 5  0.512027491408844 4.98329993319953  0.546391752577279 4.94989979959928  L 2.94845360824741 2.61523046092179  C 2.98281786941584 2.58183032732131  3 2.54342017368072  3 2.5  C 3 2.45657982631928  2.98281786941584 2.41816967267869  2.94845360824741 2.38476953907821  L 0.546391752577279 0.0501002004007205  C 0.512027491408844 0.0167000668004675  0.472508591065207 0  0.427835051546367 0  C 0.383161512027527 0  0.34364261168389 0.0167000668004675  0.309278350515456 0.0501002004007205  L 0.0515463917525949 0.300601202404778  Z " fill-rule="nonzero" fill="#333333" stroke="none" transform="matrix(1 0 0 1 828 1443 )" />
  </g>
</svg>