<?xml version="1.0" encoding="utf-8"?>
<svg version="1.1" xmlns:xlink="http://www.w3.org/1999/xlink" width="5px" height="8px" xmlns="http://www.w3.org/2000/svg">
  <g transform="matrix(1 0 0 1 -470 -1669 )">
    <path d="M 4.91408934707903 0.480961923847644  C 4.97136311569301 0.534402137608595  5 0.595858383433551  5 0.665330661322741  C 5 0.734802939211704  4.97136311569301 0.796259185036661  4.91408934707903 0.849699398797611  L 1.5378006872852 4  L 4.91408934707903 7.15030060120239  C 4.97136311569301 7.20374081496334  5 7.2651970607883  5 7.33466933867726  C 5 7.40414161656645  4.97136311569301 7.46559786239141  4.91408934707903 7.51903807615236  L 4.48453608247422 7.9198396793588  C 4.42726231386024 7.97327989311952  4.36139747995418 8  4.28694158075604 8  C 4.21248568155784 8  4.14662084765178 7.97327989311952  4.08934707903779 7.9198396793588  L 0.0859106529209726 4.18436873747487  C 0.0286368843069909 4.13092852371392  0 4.06947227788896  0 4  C 0 3.93052772211104  0.0286368843069909 3.86907147628608  0.0859106529209726 3.81563126252513  L 4.08934707903779 0.0801603206411983  C 4.14662084765178 0.0267201068804752  4.21248568155784 0  4.28694158075604 0  C 4.36139747995418 0  4.42726231386024 0.0267201068804752  4.48453608247422 0.0801603206411983  L 4.91408934707903 0.480961923847644  Z " fill-rule="nonzero" fill="#333333" stroke="none" transform="matrix(1 0 0 1 470 1669 )" />
  </g>
</svg>