<?xml version="1.0" encoding="utf-8"?>
<svg version="1.1" xmlns:xlink="http://www.w3.org/1999/xlink" width="6px" height="10px" xmlns="http://www.w3.org/2000/svg">
  <g transform="matrix(1 0 0 1 -463 -2459 )">
    <path d="M 5.89690721649487 0.601202404809555  C 5.96563573883162 0.668002672010516  6 0.744822979291712  6 0.831663326653143  C 6 0.918503674014573  5.96563573883162 0.995323981295769  5.89690721649487 1.06212424849718  L 1.84536082474227 5  L 5.89690721649487 8.93787575150282  C 5.96563573883162 9.00467601870423  6 9.08149632598543  6 9.16833667334686  C 6 9.25517702070829  5.96563573883162 9.33199732798948  5.89690721649487 9.39879759519044  L 5.38144329896909 9.89979959919856  C 5.31271477663233 9.96659986639952  5.233676975945 10  5.14432989690721 10  C 5.05498281786942 10  4.97594501718214 9.96659986639952  4.90721649484539 9.89979959919856  L 0.103092783505133 5.23046092184359  C 0.0343642611683777 5.16366065464263  0 5.08684034736143  0 5  C 0 4.91315965263857  0.0343642611683777 4.83633934535737  0.103092783505133 4.76953907815641  L 4.90721649484539 0.100200400801441  C 4.97594501718214 0.0334001336004803  5.05498281786942 0  5.14432989690721 0  C 5.233676975945 0  5.31271477663233 0.0334001336004803  5.38144329896909 0.100200400801441  L 5.89690721649487 0.601202404809555  Z " fill-rule="nonzero" fill="#333333" stroke="none" transform="matrix(1 0 0 1 463 2459 )" />
  </g>
</svg>