<?xml version="1.0" encoding="utf-8"?>
<svg version="1.1" xmlns:xlink="http://www.w3.org/1999/xlink" width="5px" height="11px" xmlns="http://www.w3.org/2000/svg">
  <g transform="matrix(1 0 0 1 -672 -2461 )">
    <path d="M 4.91408934707908 0.661322645290511  C 4.97136311569307 0.734802939211932  5 0.819305277221247  5 0.914829659318457  C 5 1.01035404141612  4.97136311569307 1.09485637942544  4.91408934707908 1.16833667334686  L 1.5378006872852 5.5  L 4.91408934707908 9.83166332665314  C 4.97136311569307 9.90514362057456  5 9.98964595858388  5 10.0851703406815  C 5 10.1806947227788  4.97136311569307 10.2651970607881  4.91408934707908 10.3386773547095  L 4.48453608247428 10.8897795591183  C 4.4272623138603 10.9632598530393  4.36139747995423 11  4.28694158075598 11  C 4.21248568155784 11  4.14662084765178 10.9632598530393  4.08934707903779 10.8897795591183  L 0.0859106529209157 5.75350701402795  C 0.0286368843070477 5.68002672010698  0 5.59552438209766  0 5.5  C 0 5.40447561790234  0.0286368843070477 5.31997327989302  0.0859106529209157 5.24649298597205  L 4.08934707903779 0.110220440881676  C 4.14662084765178 0.0367401469607103  4.21248568155784 0  4.28694158075598 0  C 4.36139747995423 0  4.4272623138603 0.0367401469607103  4.48453608247428 0.110220440881676  L 4.91408934707908 0.661322645290511  Z " fill-rule="nonzero" fill="#333333" stroke="none" transform="matrix(1 0 0 1 672 2461 )" />
  </g>
</svg>