<?xml version="1.0" encoding="utf-8"?>
<svg version="1.1" xmlns:xlink="http://www.w3.org/1999/xlink" width="4px" height="8px" xmlns="http://www.w3.org/2000/svg">
  <g transform="matrix(1 0 0 1 -1030 -2529 )">
    <path d="M 0.0687285223366416 0.480961923847644  C 0.0229095074455472 0.534402137608595  0 0.595858383433551  0 0.665330661322514  C 0 0.734802939211932  0.0229095074455472 0.796259185036888  0.0687285223366416 0.849699398797384  L 2.76975945017193 4  L 0.0687285223366416 7.15030060120216  C 0.0229095074455472 7.20374081496311  0 7.26519706078807  0 7.33466933867749  C 0 7.40414161656645  0.0229095074455472 7.46559786239141  0.0687285223366416 7.51903807615236  L 0.412371134020532 7.91983967935857  C 0.458190148911854 7.97327989311952  0.510882016036703 8  0.570446735395308 8  C 0.630011454753685 8  0.682703321878535 7.97327989311952  0.728522336769856 7.91983967935857  L 3.93127147766336 4.18436873747487  C 3.97709049255445 4.13092852371392  4 4.06947227788896  4 4  C 4 3.93052772211104  3.97709049255445 3.86907147628608  3.93127147766336 3.81563126252513  L 0.728522336769856 0.0801603206414256  C 0.682703321878535 0.0267201068804752  0.630011454753685 0  0.570446735395308 0  C 0.510882016036703 0  0.458190148911854 0.0267201068804752  0.412371134020532 0.0801603206414256  L 0.0687285223366416 0.480961923847644  Z " fill-rule="nonzero" fill="#333333" stroke="none" transform="matrix(1 0 0 1 1030 2529 )" />
  </g>
</svg>