<?xml version="1.0" encoding="utf-8"?>
<svg version="1.1" xmlns:xlink="http://www.w3.org/1999/xlink" width="13px" height="13px" xmlns="http://www.w3.org/2000/svg">
  <g transform="matrix(1 0 0 1 -1020 -2492 )">
    <path d="M 1026.5 2492  C 1030.14 2492  1033 2494.86  1033 2498.5  C 1033 2502.14  1030.14 2505  1026.5 2505  C 1022.86 2505  1020 2502.14  1020 2498.5  C 1020 2494.86  1022.86 2492  1026.5 2492  Z " fill-rule="nonzero" fill="#ffffff" stroke="none" />
    <path d="M 1026.5 2492.5  C 1029.86 2492.5  1032.5 2495.14  1032.5 2498.5  C 1032.5 2501.86  1029.86 2504.5  1026.5 2504.5  C 1023.14 2504.5  1020.5 2501.86  1020.5 2498.5  C 1020.5 2495.14  1023.14 2492.5  1026.5 2492.5  Z " stroke-width="1" stroke="#797979" fill="none" />
  </g>
</svg>