<?xml version="1.0" encoding="utf-8"?>
<svg version="1.1" xmlns:xlink="http://www.w3.org/1999/xlink" width="6px" height="11px" xmlns="http://www.w3.org/2000/svg">
  <g transform="matrix(1 0 0 1 -453 -526 )">
    <path d="M 0.103092783505133 0.661322645290568  C 0.0343642611683777 0.734802939211761  0 0.819305277221076  0 0.914829659318627  C 0 1.01035404141618  0.0343642611683777 1.09485637942555  0.103092783505133 1.16833667334669  L 4.15463917525773 5.5  L 0.103092783505133 9.83166332665326  C 0.0343642611683777 9.90514362057451  0 9.98964595858382  0 10.0851703406814  C 0 10.1806947227789  0.0343642611683777 10.2651970607883  0.103092783505133 10.3386773547094  L 0.618556701030911 10.8897795591183  C 0.687285223367724 10.9632598530394  0.766323024054998 11  0.855670103092791 11  C 0.945017182130584 11  1.02405498281786 10.9632598530394  1.09278350515461 10.8897795591183  L 5.89690721649487 5.75350701402806  C 5.96563573883162 5.68002672010687  6 5.59552438209749  6 5.5  C 6 5.40447561790251  5.96563573883162 5.31997327989313  5.89690721649487 5.24649298597194  L 1.09278350515461 0.11022044088179  C 1.02405498281786 0.0367401469605966  0.945017182130584 0  0.855670103092791 0  C 0.766323024054998 0  0.687285223367724 0.0367401469605966  0.618556701030911 0.11022044088179  L 0.103092783505133 0.661322645290568  Z " fill-rule="nonzero" fill="#333333" stroke="none" transform="matrix(1 0 0 1 453 526 )" />
  </g>
</svg>