<?xml version="1.0" encoding="utf-8"?>
<svg version="1.1" xmlns:xlink="http://www.w3.org/1999/xlink" width="23px" height="23px" xmlns="http://www.w3.org/2000/svg">
  <g transform="matrix(1 0 0 1 -1011 -473 )">
    <path d="M 1022.5 473  C 1028.94 473  1034 478.06  1034 484.5  C 1034 490.94  1028.94 496  1022.5 496  C 1016.06 496  1011 490.94  1011 484.5  C 1011 478.06  1016.06 473  1022.5 473  Z " fill-rule="nonzero" fill="#ffffff" stroke="none" />
    <path d="M 1022.5 473.5  C 1028.66 473.5  1033.5 478.34  1033.5 484.5  C 1033.5 490.66  1028.66 495.5  1022.5 495.5  C 1016.34 495.5  1011.5 490.66  1011.5 484.5  C 1011.5 478.34  1016.34 473.5  1022.5 473.5  Z " stroke-width="1" stroke="#797979" fill="none" />
  </g>
</svg>