<?xml version="1.0" encoding="utf-8"?>
<svg version="1.1" xmlns:xlink="http://www.w3.org/1999/xlink" width="11px" height="19px" xmlns="http://www.w3.org/2000/svg">
  <g transform="matrix(1 0 0 1 -1127 -836 )">
    <path d="M 10.8109965635739 1.1422845691383  C 10.9369988545246 1.2692050768203  11 1.41516366065463  11 1.58016032064128  C 11 1.74515698062794  10.9369988545246 1.89111556446227  10.8109965635739 2.01803607214427  L 3.38316151202748 9.5  L 10.8109965635739 16.9819639278557  C 10.9369988545246 17.1088844355377  11 17.2548430193721  11 17.4198396793587  C 11 17.5848363393454  10.9369988545246 17.7307949231797  10.8109965635739 17.8577154308617  L 9.86597938144331 18.809619238477  C 9.73997709049256 18.936539746159  9.59507445589921 19  9.43127147766323 19  C 9.26746849942727 19  9.1225658648339 18.936539746159  8.99656357388317 18.809619238477  L 0.18900343642612 9.93787575150301  C 0.0630011454753827 9.81095524382096  0 9.66499665998663  0 9.5  C 0 9.33500334001337  0.0630011454753827 9.18904475617904  0.18900343642612 9.06212424849699  L 8.99656357388317 0.190380761523045  C 9.1225658648339 0.0634602538410149  9.26746849942727 0  9.43127147766323 0  C 9.59507445589921 0  9.73997709049256 0.0634602538410149  9.86597938144331 0.190380761523045  L 10.8109965635739 1.1422845691383  Z " fill-rule="nonzero" fill="#333333" stroke="none" transform="matrix(1 0 0 1 1127 836 )" />
  </g>
</svg>