<?xml version="1.0" encoding="utf-8"?>
<svg version="1.1" xmlns:xlink="http://www.w3.org/1999/xlink" width="26px" height="43px" xmlns="http://www.w3.org/2000/svg">
  <g transform="matrix(1 0 0 1 -952 -3021 )">
    <path d="M 25.553264604811 2.58517034068154  C 25.8510882016037 2.87241148964631  26 3.20273881095545  26 3.57615230460942  C 26 3.94956579826339  25.8510882016037 4.27989311957253  25.553264604811 4.5671342685373  L 7.99656357388312 21.5  L 25.553264604811 38.4328657314627  C 25.8510882016037 38.7201068804275  26 39.0504342017366  26 39.4238476953906  C 26 39.7972611890445  25.8510882016037 40.1275885103537  25.553264604811 40.4148296593185  L 23.319587628866 42.5691382765531  C 23.0217640320733 42.8563794255178  22.6792668957618 43  22.2920962199313 43  C 21.9049255441008 43  21.5624284077892 42.8563794255178  21.2646048109966 42.5691382765531  L 0.446735395188966 22.4909819639279  C 0.148911798396398 22.2037408149631  0 21.873413493654  0 21.5  C 0 21.126586506346  0.148911798396398 20.7962591850369  0.446735395188966 20.5090180360721  L 21.2646048109966 0.430861723446924  C 21.5624284077892 0.143620574482156  21.9049255441008 0  22.2920962199313 0  C 22.6792668957618 0  23.0217640320733 0.143620574482156  23.319587628866 0.430861723446924  L 25.553264604811 2.58517034068154  Z " fill-rule="nonzero" fill="#333333" stroke="none" transform="matrix(1 0 0 1 952 3021 )" />
  </g>
</svg>