<?xml version="1.0" encoding="utf-8"?>
<svg version="1.1" xmlns:xlink="http://www.w3.org/1999/xlink" width="26px" height="26px" xmlns="http://www.w3.org/2000/svg">
  <g transform="matrix(1 0 0 1 -437 -200 )">
    <path d="M 450 200  C 457.28 200  463 205.72  463 213  C 463 220.28  457.28 226  450 226  C 442.72 226  437 220.28  437 213  C 437 205.72  442.72 200  450 200  Z " fill-rule="nonzero" fill="#ffffff" stroke="none" />
    <path d="M 450 200.5  C 457 200.5  462.5 206  462.5 213  C 462.5 220  457 225.5  450 225.5  C 443 225.5  437.5 220  437.5 213  C 437.5 206  443 200.5  450 200.5  Z " stroke-width="1" stroke="#797979" fill="none" />
  </g>
</svg>