<?xml version="1.0" encoding="utf-8"?>
<svg version="1.1" xmlns:xlink="http://www.w3.org/1999/xlink" width="5px" height="10px" xmlns="http://www.w3.org/2000/svg">
  <g transform="matrix(1 0 0 1 -451 -620 )">
    <path d="M 0.0859106529209157 0.601202404809669  C 0.0286368843069909 0.66800267201063  0 0.744822979291826  0 0.831663326653256  C 0 0.918503674014687  0.0286368843069909 0.995323981295996  0.0859106529209157 1.06212424849696  L 3.4621993127148 5  L 0.0859106529209157 8.93787575150293  C 0.0286368843069909 9.00467601870412  0 9.08149632598531  0 9.16833667334674  C 0 9.25517702070806  0.0286368843069909 9.33199732798937  0.0859106529209157 9.39879759519033  L 0.515463917525722 9.89979959919845  C 0.57273768613976 9.96659986639941  0.638602520045822 10  0.713058419244021 10  C 0.787514318442163 10  0.853379152348225 9.96659986639941  0.910652920962207 9.89979959919845  L 4.91408934707908 5.2304609218437  C 4.97136311569301 5.16366065464251  5 5.08684034736132  5 5  C 5 4.91315965263868  4.97136311569301 4.83633934535749  4.91408934707908 4.7695390781563  L 0.910652920962207 0.100200400801668  C 0.853379152348225 0.033400133600594  0.787514318442163 0  0.713058419244021 0  C 0.638602520045822 0  0.57273768613976 0.033400133600594  0.515463917525722 0.100200400801668  L 0.0859106529209157 0.601202404809669  Z " fill-rule="nonzero" fill="#333333" stroke="none" transform="matrix(1 0 0 1 451 620 )" />
  </g>
</svg>