<?xml version="1.0" encoding="utf-8"?>
<svg version="1.1" xmlns:xlink="http://www.w3.org/1999/xlink" width="17px" height="18px" xmlns="http://www.w3.org/2000/svg">
  <g transform="matrix(1 0 0 1 -1126 -2775 )">
    <path d="M 1134.5 2775  C 1139.26 2775  1143 2778.96  1143 2784  C 1143 2789.04  1139.26 2793  1134.5 2793  C 1129.74 2793  1126 2789.04  1126 2784  C 1126 2778.96  1129.74 2775  1134.5 2775  Z " fill-rule="nonzero" fill="#ffffff" stroke="none" />
    <path d="M 1134.5 2775.5  C 1138.98 2775.5  1142.5 2779.24  1142.5 2784  C 1142.5 2788.76  1138.98 2792.5  1134.5 2792.5  C 1130.02 2792.5  1126.5 2788.76  1126.5 2784  C 1126.5 2779.24  1130.02 2775.5  1134.5 2775.5  Z " stroke-width="1" stroke="#999999" fill="none" />
  </g>
</svg>