<?xml version="1.0" encoding="utf-8"?>
<svg version="1.1" xmlns:xlink="http://www.w3.org/1999/xlink" width="15px" height="15px" xmlns="http://www.w3.org/2000/svg">
  <g transform="matrix(1 0 0 1 -111 -179 )">
    <path d="M 118.5 179  C 122.7 179  126 182.3  126 186.5  C 126 190.7  122.7 194  118.5 194  C 114.3 194  111 190.7  111 186.5  C 111 182.3  114.3 179  118.5 179  Z " fill-rule="nonzero" fill="#ffffff" stroke="none" />
    <path d="M 118.5 179.5  C 122.42 179.5  125.5 182.58  125.5 186.5  C 125.5 190.42  122.42 193.5  118.5 193.5  C 114.58 193.5  111.5 190.42  111.5 186.5  C 111.5 182.58  114.58 179.5  118.5 179.5  Z " stroke-width="1" stroke="#cccccc" fill="none" />
  </g>
</svg>