<?xml version="1.0" encoding="utf-8"?>
<svg version="1.1" xmlns:xlink="http://www.w3.org/1999/xlink" width="333px" height="10px" preserveAspectRatio="xMinYMid meet" viewBox="225 2433  333 8" xmlns="http://www.w3.org/2000/svg">
  <path d="M 231 2426  L 230 2426  L 230 2437  L 553 2437  L 553 2406  " stroke-width="2" stroke="#0099cc" fill="none" />
  <path d="M 230 2423  A 3.5 3.5 0 0 0 226.5 2426.5 A 3.5 3.5 0 0 0 230 2430 A 3.5 3.5 0 0 0 233.5 2426.5 A 3.5 3.5 0 0 0 230 2423 Z M 548.707106781187 2411.10710678119  L 553 2406.81421356237  L 557.292893218813 2411.10710678119  L 558.707106781187 2409.69289321881  L 553.707106781187 2404.69289321881  L 553 2403.98578643763  L 552.292893218813 2404.69289321881  L 547.292893218813 2409.69289321881  L 548.707106781187 2411.10710678119  Z " fill-rule="nonzero" fill="#0099cc" stroke="none" />
</svg>