<?xml version="1.0" encoding="utf-8"?>
<svg version="1.1" xmlns:xlink="http://www.w3.org/1999/xlink" width="63px" height="10px" preserveAspectRatio="xMinYMid meet" viewBox="712 2448  63 8" xmlns="http://www.w3.org/2000/svg">
  <path d="M 555 2359  L 555 2348  L 717 2348  L 717 2452  L 773 2452  " stroke-width="2" stroke="#0099cc" fill="none" />
  <path d="M 555 2353  A 3.5 3.5 0 0 0 551.5 2356.5 A 3.5 3.5 0 0 0 555 2360 A 3.5 3.5 0 0 0 558.5 2356.5 A 3.5 3.5 0 0 0 555 2353 Z M 767.892893218813 2447.70710678119  L 772.185786437627 2452  L 767.892893218813 2456.29289321881  L 769.307106781187 2457.70710678119  L 774.307106781187 2452.70710678119  L 775.014213562373 2452  L 774.307106781187 2451.29289321881  L 769.307106781187 2446.29289321881  L 767.892893218813 2447.70710678119  Z " fill-rule="nonzero" fill="#0099cc" stroke="none" />
</svg>