<?xml version="1.0" encoding="utf-8"?>
<svg version="1.1" xmlns:xlink="http://www.w3.org/1999/xlink" width="6px" height="11px" xmlns="http://www.w3.org/2000/svg">
  <g transform="matrix(1 0 0 1 -438 -252 )">
    <path d="M 5.89690721649484 0.661322645290568  C 5.96563573883162 0.734802939211761  6 0.819305277221076  6 0.914829659318684  C 6 1.01035404141618  5.96563573883162 1.09485637942549  5.89690721649484 1.16833667334663  L 1.84536082474227 5.5  L 5.89690721649484 9.83166332665331  C 5.96563573883162 9.90514362057451  6 9.98964595858382  6 10.0851703406813  C 6 10.1806947227789  5.96563573883162 10.2651970607882  5.89690721649484 10.3386773547094  L 5.38144329896906 10.8897795591183  C 5.3127147766323 10.9632598530394  5.23367697594503 11  5.14432989690724 11  C 5.05498281786942 11  4.97594501718214 10.9632598530394  4.90721649484536 10.8897795591183  L 0.103092783505133 5.75350701402806  C 0.0343642611683777 5.68002672010687  0 5.59552438209755  0 5.5  C 0 5.40447561790245  0.0343642611683777 5.31997327989313  0.103092783505133 5.24649298597194  L 4.90721649484536 0.110220440881733  C 4.97594501718214 0.0367401469605966  5.05498281786942 0  5.14432989690724 0  C 5.23367697594503 0  5.3127147766323 0.0367401469605966  5.38144329896906 0.110220440881733  L 5.89690721649484 0.661322645290568  Z " fill-rule="nonzero" fill="#333333" stroke="none" transform="matrix(1 0 0 1 438 252 )" />
  </g>
</svg>