<?xml version="1.0" encoding="utf-8"?>
<svg version="1.1" xmlns:xlink="http://www.w3.org/1999/xlink" width="8px" height="15px" xmlns="http://www.w3.org/2000/svg">
  <g transform="matrix(1 0 0 1 -448 -330 )">
    <path d="M 0.137457044673454 0.901803607214504  C 0.0458190148912081 1.00200400801594  0 1.11723446893774  0 1.24749498997988  C 0 1.37775551102203  0.0458190148912081 1.49298597194399  0.137457044673454 1.59318637274544  L 5.53951890034369 7.5  L 0.137457044673454 13.4068136272544  C 0.0458190148912081 13.5070140280562  0 13.622244488978  0 13.7525050100201  C 0 13.8827655310621  0.0458190148912081 13.9979959919841  0.137457044673454 14.0981963927855  L 0.824742268041177 14.8496993987977  C 0.916380297823594 14.9498997995991  1.02176403207329 15  1.14089347079045 15  C 1.26002290950748 15  1.36540664375718 14.9498997995991  1.45704467353954 14.8496993987977  L 7.86254295532655 7.84569138276555  C 7.95418098510879 7.74549098196377  8 7.63026052104197  8 7.5  C 8 7.36973947895802  7.95418098510879 7.25450901803623  7.86254295532655 7.15430861723445  L 1.45704467353954 0.150300601202503  C 1.36540664375718 0.050100200400891  1.26002290950748 0  1.14089347079045 0  C 1.02176403207329 0  0.916380297823594 0.050100200400891  0.824742268041177 0.150300601202503  L 0.137457044673454 0.901803607214504  Z " fill-rule="nonzero" fill="#333333" stroke="none" transform="matrix(1 0 0 1 448 330 )" />
  </g>
</svg>